<svg width="1200" height="800" viewBox="0 0 1200 800" fill="none" xmlns="http://www.w3.org/2000/svg">
  <defs>
    <linearGradient id="screenBg" x1="0" y1="0" x2="1" y2="1">
      <stop offset="0" stop-color="#0C1B33"/>
      <stop offset="1" stop-color="#132A4D"/>
    </linearGradient>
    <linearGradient id="panelGlow" x1="0" y1="0" x2="1" y2="1">
      <stop offset="0" stop-color="#64FFDA" stop-opacity="0.18"/>
      <stop offset="1" stop-color="#0F2A4D" stop-opacity="0"/>
    </linearGradient>
    <linearGradient id="button" x1="0" y1="0" x2="1" y2="1">
      <stop offset="0" stop-color="#64FFDA"/>
      <stop offset="1" stop-color="#3DBB9D"/>
    </linearGradient>
  </defs>
  <rect width="1200" height="800" rx="40" fill="#081829"/>
  <rect x="120" y="120" width="960" height="560" rx="36" fill="#0F2A4B"/>
  <rect x="140" y="140" width="920" height="520" rx="30" fill="url(#screenBg)"/>
  <rect x="180" y="180" width="280" height="40" rx="20" fill="#163A65"/>
  <circle cx="220" cy="200" r="8" fill="#FF5F57"/>
  <circle cx="250" cy="200" r="8" fill="#FFBD2E"/>
  <circle cx="280" cy="200" r="8" fill="#27C93F"/>
  <rect x="180" y="260" width="840" height="280" rx="24" fill="#112D57"/>
  <rect x="220" y="300" width="520" height="28" rx="14" fill="#1E3F6D"/>
  <rect x="220" y="350" width="560" height="18" rx="9" fill="#64FFDA" opacity="0.85"/>
  <rect x="220" y="380" width="520" height="18" rx="9" fill="#5FD6CA" opacity="0.75"/>
  <rect x="220" y="410" width="260" height="18" rx="9" fill="#6CCAFF" opacity="0.75"/>
  <rect x="220" y="450" width="700" height="18" rx="9" fill="#1A2F54"/>
  <rect x="220" y="480" width="760" height="18" rx="9" fill="#1A2F54"/>
  <rect x="220" y="510" width="700" height="18" rx="9" fill="#1A2F54"/>
  <rect x="220" y="540" width="560" height="18" rx="9" fill="#1A2F54"/>
  <path d="M220 315H300C304.418 315 308 318.582 308 323V363C308 367.418 304.418 371 300 371H220C215.582 371 212 367.418 212 363V323C212 318.582 215.582 315 220 315Z" fill="#0BD7A4"/>
  <path d="M220 373H300C304.418 373 308 376.582 308 381V421C308 425.418 304.418 429 300 429H220C215.582 429 212 425.418 212 421V381C212 376.582 215.582 373 220 373Z" fill="#1B4E95"/>
  <path d="M240 330H280" stroke="#081829" stroke-width="8" stroke-linecap="round"/>
  <path d="M240 388H280" stroke="#081829" stroke-width="8" stroke-linecap="round"/>
  <rect x="620" y="300" width="260" height="180" rx="20" fill="#0A1F33"/>
  <rect x="640" y="330" width="220" height="18" rx="9" fill="#64FFDA" opacity="0.95"/>
  <rect x="640" y="365" width="180" height="18" rx="9" fill="#8DF2DB" opacity="0.7"/>
  <rect x="640" y="400" width="210" height="18" rx="9" fill="#8DF2DB" opacity="0.7"/>
  <rect x="640" y="435" width="180" height="18" rx="9" fill="#8DF2DB" opacity="0.7"/>
  <rect x="640" y="470" width="230" height="18" rx="9" fill="#8DF2DB" opacity="0.7"/>
  <rect x="700" y="520" width="160" height="42" rx="21" fill="url(#button)"/>
  <text x="725" y="553" fill="#081829" font-family="Inter, sans-serif" font-size="18" font-weight="700">Run Code</text>
  <circle cx="680" cy="640" r="72" fill="#05121F"/>
  <path d="M650 640C650 626.745 661.745 615 675 615H725C738.255 615 750 626.745 750 640C750 653.255 738.255 665 725 665H675C661.745 665 650 653.255 650 640Z" fill="#64FFDA"/>
  <rect x="540" y="560" width="140" height="18" rx="9" fill="#9CFFDE" opacity="0.7"/>
  <rect x="540" y="590" width="260" height="18" rx="9" fill="#79F2D1" opacity="0.7"/>
  <rect x="540" y="620" width="320" height="18" rx="9" fill="#79F2D1" opacity="0.7"/>
  <rect x="220" y="620" width="740" height="32" rx="16" fill="#0E1F38" opacity="0.9"/>
  <rect x="240" y="630" width="140" height="12" rx="6" fill="#1E3A5F"/>
  <rect x="410" y="630" width="280" height="12" rx="6" fill="#1E3A5F"/>
  <rect x="740" y="630" width="120" height="12" rx="6" fill="#1E3A5F"/>
  <rect x="240" y="662" width="720" height="22" rx="11" fill="url(#panelGlow)"/>
  <rect x="180" y="180" width="840" height="280" rx="24" fill="url(#panelGlow)"/>
</svg>