<svg width="1200" height="800" viewBox="0 0 1200 800" fill="none" xmlns="http://www.w3.org/2000/svg">
  <defs>
    <linearGradient id="bg" x1="0" y1="0" x2="1200" y2="800" gradientUnits="userSpaceOnUse">
      <stop stop-color="#0A1632"/>
      <stop offset="1" stop-color="#112244"/>
    </linearGradient>
    <linearGradient id="accent" x1="0" y1="0" x2="1" y2="1">
      <stop stop-color="#64FFDA"/>
      <stop offset="1" stop-color="#3DBB9D"/>
    </linearGradient>
  </defs>
  <rect width="1200" height="800" rx="40" fill="url(#bg)"/>
  <rect x="120" y="180" width="480" height="380" rx="32" fill="#111C3B" stroke="#22345E" stroke-width="3"/>
  <rect x="140" y="210" width="440" height="60" rx="16" fill="#17294F"/>
  <rect x="160" y="280" width="380" height="40" rx="12" fill="#1E3362"/>
  <rect x="160" y="340" width="340" height="40" rx="12" fill="#1E3362"/>
  <rect x="160" y="400" width="300" height="40" rx="12" fill="#1E3362"/>
  <rect x="160" y="460" width="260" height="40" rx="12" fill="#1E3362"/>
  <circle cx="760" cy="290" r="90" fill="#0A1A37" stroke="#64ffda" stroke-width="4"/>
  <path d="M720 270H780V310H820V350H780V390H720V350H680V310H720V270Z" fill="#64FFDA"/>
  <path d="M660 520H940L980 680H700L660 520Z" fill="#1E3362" stroke="#64ffda" stroke-width="4"/>
  <rect x="660" y="520" width="260" height="24" rx="12" fill="#64FFDA"/>
  <rect x="700" y="560" width="120" height="24" rx="12" fill="#111C3B"/>
  <circle cx="780" cy="640" r="26" fill="#64FFDA"/>
  <circle cx="860" cy="640" r="26" fill="#64FFDA"/>
  <text x="260" y="640" fill="#64FFDA" font-size="48" font-family="Inter, sans-serif" font-weight="700">E-Commerce</text>
</svg>