<svg width="1200" height="800" viewBox="0 0 1200 800" fill="none" xmlns="http://www.w3.org/2000/svg">
  <defs>
    <linearGradient id="bg" x1="0" y1="0" x2="1200" y2="800" gradientUnits="userSpaceOnUse">
      <stop stop-color="#091525"/>
      <stop offset="1" stop-color="#12233B"/>
    </linearGradient>
    <linearGradient id="panel" x1="0" y1="0" x2="0" y2="1">
      <stop stop-color="#112A4F"/>
      <stop offset="1" stop-color="#0E1D38"/>
    </linearGradient>
    <linearGradient id="accent" x1="0" y1="0" x2="1" y2="1">
      <stop stop-color="#64FFDA"/>
      <stop offset="1" stop-color="#2BB390"/>
    </linearGradient>
  </defs>
  <rect width="1200" height="800" rx="36" fill="url(#bg)"/>
  <rect x="108" y="108" width="984" height="584" rx="28" fill="#0A1F3A" stroke="#264C7D" stroke-width="4"/>
  <rect x="140" y="160" width="920" height="68" rx="20" fill="#122D57"/>
  <circle cx="180" cy="204" r="10" fill="#FF5F57"/>
  <circle cx="220" cy="204" r="10" fill="#FFBD2E"/>
  <circle cx="260" cy="204" r="10" fill="#27C93F"/>
  <rect x="164" y="260" width="780" height="440" rx="28" fill="url(#panel)"/>
  <rect x="208" y="308" width="620" height="120" rx="26" fill="#162F58"/>
  <rect x="228" y="342" width="160" height="16" rx="8" fill="#64FFDA" opacity="0.9"/>
  <rect x="228" y="374" width="180" height="14" rx="7" fill="#A7F8D6" opacity="0.6"/>
  <rect x="228" y="412" width="260" height="22" rx="12" fill="#0D1E34"/>
  <rect x="228" y="452" width="520" height="40" rx="16" fill="#0C1630" stroke="#1B406E" stroke-width="2"/>
  <rect x="228" y="508" width="520" height="20" rx="10" fill="#0C1630"/>
  <rect x="228" y="540" width="520" height="20" rx="10" fill="#0C1630"/>
  <rect x="228" y="580" width="520" height="20" rx="10" fill="#0C1630"/>
  <rect x="228" y="620" width="260" height="40" rx="20" fill="url(#accent)"/>
  <rect x="228" y="680" width="380" height="40" rx="20" fill="#0B1B34"/>
  <text x="264" y="298" fill="#FFFFFF" font-family="Inter, sans-serif" font-size="28" font-weight="700">Converter Dashboard</text>
  <text x="500" y="434" fill="#64FFDA" font-family="Inter, sans-serif" font-size="40" font-weight="700">1011</text>
  <text x="500" y="488" fill="#A7F8D6" font-family="Inter, sans-serif" font-size="20">Binary</text>
  <line x1="500" y1="512" x2="680" y2="512" stroke="#64FFDA" stroke-width="2" stroke-dasharray="8 8"/>
  <text x="700" y="434" fill="#FFFFFF" font-family="Inter, sans-serif" font-size="40" font-weight="700">9</text>
  <text x="700" y="488" fill="#A7F8D6" font-family="Inter, sans-serif" font-size="20">Decimal</text>
  <rect x="768" y="560" width="120" height="42" rx="20" fill="#1D406B"/>
  <text x="792" y="590" fill="#64FFDA" font-family="Inter, sans-serif" font-size="18" font-weight="700">Convert</text>
  <rect x="708" y="308" width="220" height="96" rx="20" fill="#0C1E35"/>
  <text x="738" y="360" fill="#64FFDA" font-family="Inter, sans-serif" font-size="18" font-weight="700">Side panel</text>
  <text x="738" y="390" fill="#A7F8D6" font-family="Inter, sans-serif" font-size="14">Unit calculations, history, notes</text>
</svg>